<?xml version="1.0"?>
<svg xmlns="http://www.w3.org/2000/svg" width="1024px" height="285.39259259259px" viewBox="0 0 1080 301" fill="none">
<g clip-path="url(#clip0_1444_10224)">
<g clip-path="url(#clip1_1444_10224)">
<path d="M871.553 248.844C859.437 248.844 850.593 246.157 845.021 240.782C839.45 235.138 836.62 226.449 836.62 214.803V99.6882H898.703V49.9694H836.62V-0.197266H770.734V49.9694H726.073V99.6882H770.734V217.042C770.734 245.978 777.367 267.209 790.632 280.647C803.898 293.815 825.123 300.355 854.307 300.355C869.607 300.355 884.288 298.742 898.703 295.786V245.709C889.505 247.769 880.485 248.844 871.553 248.844Z" fill="#5BFFC4"/>
<path d="M642.057 300.803V153.438C642.057 136.149 637.9 123.607 629.676 115.813C621.716 108.019 608.893 104.167 591.205 104.167C581.743 104.167 572.368 105.959 562.905 109.542C553.796 113.126 545.837 118.232 539.027 124.771C526.646 136.686 520.455 150.124 520.455 165.084V300.803H454.569V51.3131H519.129V96.1048C543.891 66.2735 575.729 51.3131 614.641 51.3131C644.71 51.3131 667.704 59.1069 683.623 74.6048C699.807 89.834 707.943 111.782 707.943 140.449V300.803H642.057Z" fill="#5BFFC4"/>
<path d="M345.762 299.987V259.675C332.231 272.843 317.639 282.518 301.985 288.789C286.686 294.791 268.998 297.747 248.923 297.747C218.589 297.747 195.241 291.656 179.057 279.383C162.873 266.841 154.737 249.104 154.737 226.081C154.737 200.37 165.349 181.289 186.574 168.747C207.799 156.206 241.229 149.308 286.951 148.143L343.551 146.8V137.841C343.551 124.672 338.864 114.729 329.401 107.831C319.938 100.664 306.584 97.0808 289.162 97.0808C255.821 97.0808 235.923 106.666 229.467 125.747L169.771 119.925C174.458 96.3641 186.84 78.8954 206.915 67.5183C227.256 56.1412 255.379 50.4974 291.373 50.4974C368.314 50.4974 406.784 81.2245 406.784 142.768V299.987H345.762ZM343.551 186.216L288.278 187.56C264.399 188.187 246.889 191.322 235.657 196.966C224.779 202.341 219.296 210.583 219.296 221.602C219.296 231.187 223.276 238.443 231.235 243.55C239.46 248.656 251.311 251.164 266.61 251.164C278.992 251.164 290.312 249.641 300.659 246.685C311.006 243.37 319.673 238.802 326.748 232.8C337.98 223.841 343.551 212.464 343.551 198.758V186.216Z" fill="#5BFFC4"/>
<path d="M1032.51 49.9694C1064.17 85.9819 1080.09 127.817 1080.09 175.386C1080.09 222.955 1064.26 264.79 1032.51 300.803H973.963C988.467 280.557 999.079 260.221 1005.89 239.976C1012.61 219.909 1015.97 198.409 1015.97 175.386C1015.97 152.363 1012.61 130.774 1005.89 110.528C999.168 90.461 988.467 70.3048 973.963 49.9694H1032.51Z" fill="#5BFFC4"/>
<path d="M47.5794 49.9694C15.8303 85.9819 0 127.817 0 175.386C0 222.955 15.8303 264.79 47.5794 300.803H106.125C91.6213 280.557 81.0088 260.221 74.1991 239.976C67.4779 219.909 64.1173 198.409 64.1173 175.386C64.1173 152.363 67.4779 130.774 74.1991 110.528C80.9204 90.461 91.6213 70.3048 106.125 49.9694H47.5794Z" fill="#5BFFC4"/>
</g>
</g>
<defs>
<clipPath id="clip0_1444_10224">
<rect width="1080" height="301" fill="white"/>
</clipPath>
<clipPath id="clip1_1444_10224">
<rect width="1080" height="301" fill="white" transform="translate(0 -0.197266)"/>
</clipPath>
</defs>
</svg>
