<?xml version="1.0" encoding="UTF-8"?>
<svg xmlns="http://www.w3.org/2000/svg" id="Vrstva_1" data-name="Vrstva 1" viewBox="0 0 623.62 141.73" width="1024px" height="232.7242872262px">
  <defs>
    <style>
      .cls-1 {
        fill: #fff;
      }

      .cls-2 {
        fill: #5bffc4;
      }
    </style>
  </defs>
  <path class="cls-1" d="M570.2,90.21v-1.76c-.72.72-1.5,1.25-2.35,1.6-.85.33-1.84.49-2.99.49-1.58,0-2.81-.32-3.67-.96-.86-.66-1.29-1.58-1.29-2.77,0-1.33.56-2.32,1.67-2.96,1.13-.66,2.9-1.03,5.31-1.1l3.24-.09v-.4c0-1.66-1.1-2.49-3.29-2.49-1.07,0-1.89.13-2.47.4-.58.25-.96.64-1.13,1.18l-2.52-.28c.28-1.18.92-2.04,1.93-2.59,1-.56,2.43-.85,4.28-.85,1.99,0,3.46.39,4.42,1.18.97.78,1.46,1.98,1.46,3.6v7.83h-2.61ZM570.13,84.5l-3.2.09c-1.47.05-2.54.23-3.2.54-.64.31-.96.79-.96,1.43,0,.58.25,1.03.75,1.36.5.31,1.2.47,2.09.47.67,0,1.32-.09,1.93-.28.63-.2,1.17-.49,1.62-.85.64-.49.96-1.14.96-1.95v-.82Z"/>
  <path class="cls-1" d="M551.61,90.21v-12.22h2.77v2.09c.58-.74,1.25-1.3,2.02-1.69.78-.39,1.61-.59,2.49-.59.38,0,.81.04,1.32.12l-.33,2.35c-.47-.08-.9-.12-1.29-.12-1.24,0-2.24.35-3.01,1.06-.77.69-1.15,1.5-1.15,2.42v6.58h-2.82Z"/>
  <path class="cls-1" d="M546.06,90.21v-2.02c-1.36,1.6-3.08,2.4-5.15,2.4-1.55,0-2.75-.4-3.6-1.2-.85-.8-1.27-1.94-1.27-3.43v-7.97h2.82v7.48c0,.96.24,1.67.7,2.14.49.47,1.22.71,2.21.71,1.17,0,2.22-.4,3.13-1.2.74-.66,1.11-1.47,1.11-2.42v-6.7h2.82v12.22h-2.77Z"/>
  <path class="cls-1" d="M534.75,89.98c-1.05.33-2.12.49-3.22.49-1.44,0-2.5-.33-3.17-.99-.66-.67-.99-1.75-.99-3.22v-6.14h-2.37v-2.14h2.37v-3.29h2.82v3.29h4.18v2.14h-4.18v6.23c0,.64.16,1.12.47,1.43.33.31.83.47,1.5.47.72,0,1.44-.12,2.16-.35l.42,2.07Z"/>
  <path class="cls-1" d="M521.04,90.21v-7.38c0-1.03-.24-1.78-.73-2.23-.49-.47-1.27-.71-2.35-.71-.6,0-1.18.11-1.74.33-.55.22-1.03.52-1.46.92-.74.69-1.1,1.49-1.1,2.4v6.68h-2.82v-12.22h2.77v2.02c1.35-1.6,3.09-2.4,5.22-2.4,1.65,0,2.89.4,3.74,1.2.86.8,1.29,1.97,1.29,3.5v7.9h-2.82Z"/>
  <path class="cls-1" d="M497.9,84.81c.03,1.13.42,2.03,1.18,2.7.77.66,1.77.99,3.01.99.97,0,1.76-.16,2.37-.47.63-.33,1.06-.81,1.29-1.43h2.8c-.34,1.35-1.06,2.35-2.14,3.01-1.07.66-2.52.99-4.35.99-2.15,0-3.84-.56-5.08-1.69-1.22-1.14-1.83-2.7-1.83-4.68,0-1.29.27-2.42.82-3.41.56-1,1.36-1.79,2.4-2.35,1.05-.56,2.27-.85,3.67-.85,2.12,0,3.75.55,4.91,1.65,1.18,1.08,1.76,2.6,1.76,4.56v.99h-10.81ZM506.01,82.93c-.03-1.03-.4-1.83-1.1-2.4-.69-.58-1.65-.87-2.89-.87-1.11,0-2.04.3-2.77.89-.72.58-1.14,1.37-1.27,2.37h8.04Z"/>
  <path class="cls-1" d="M490.18,87.6c-1.13,1.54-2.86,2.3-5.19,2.3-1.19,0-2.25-.24-3.17-.73-.91-.49-1.63-1.19-2.16-2.12-.52-.92-.78-2.01-.78-3.24,0-1.16.26-2.21.78-3.15.53-.94,1.29-1.68,2.26-2.23.97-.55,2.09-.82,3.36-.82,1.11,0,2.07.17,2.87.52.82.34,1.51.89,2.09,1.62v-1.76h2.77v10.16c0,2.4-.55,4.15-1.65,5.24-1.08,1.1-2.81,1.65-5.17,1.65-2.08,0-3.67-.32-4.77-.96-1.1-.63-1.75-1.6-1.95-2.91h2.84c.22.6.63,1.03,1.25,1.29.61.28,1.48.42,2.61.42,1.36,0,2.37-.31,3.03-.94.66-.61.99-1.58.99-2.89v-1.43ZM490.18,83.49c0-1.02-.38-1.9-1.13-2.66-.67-.67-1.68-1.01-3.01-1.01s-2.4.34-3.15,1.03c-.74.69-1.11,1.66-1.11,2.91s.35,2.2,1.06,2.89c.72.69,1.74,1.03,3.06,1.03.64,0,1.24-.1,1.79-.31.55-.2,1.01-.49,1.39-.85.74-.71,1.1-1.53,1.1-2.47v-.59Z"/>
  <path class="cls-1" d="M474.22,90.21v-1.76c-.72.72-1.5,1.25-2.35,1.6-.85.33-1.84.49-2.99.49-1.58,0-2.81-.32-3.67-.96-.86-.66-1.29-1.58-1.29-2.77,0-1.33.56-2.32,1.67-2.96,1.13-.66,2.9-1.03,5.31-1.1l3.24-.09v-.4c0-1.66-1.1-2.49-3.29-2.49-1.07,0-1.89.13-2.47.4-.58.25-.96.64-1.13,1.18l-2.52-.28c.28-1.18.92-2.04,1.93-2.59,1-.56,2.43-.85,4.28-.85,1.99,0,3.46.39,4.42,1.18.97.78,1.46,1.98,1.46,3.6v7.83h-2.61ZM474.15,84.5l-3.2.09c-1.47.05-2.54.23-3.2.54-.64.31-.96.79-.96,1.43,0,.58.25,1.03.75,1.36.5.31,1.2.47,2.09.47.67,0,1.32-.09,1.93-.28.63-.2,1.17-.49,1.62-.85.64-.49.96-1.14.96-1.95v-.82Z"/>
  <path class="cls-1" d="M453.54,90.21v-12.22h2.82v12.22h-2.82ZM455.61,76.37h-2.7l3.41-3.55h3.34l-4.04,3.55Z"/>
  <path class="cls-1" d="M448.04,90.21v-7.38c0-1.03-.24-1.78-.73-2.23-.49-.47-1.27-.71-2.35-.71-.6,0-1.18.11-1.74.33-.55.22-1.03.52-1.46.92-.74.69-1.1,1.49-1.1,2.4v6.68h-2.82v-12.22h2.77v2.02c1.35-1.6,3.09-2.4,5.22-2.4,1.65,0,2.89.4,3.74,1.2.86.8,1.29,1.97,1.29,3.5v7.9h-2.82Z"/>
  <path class="cls-1" d="M432.23,90.21v-16.78h2.82v16.78h-2.82Z"/>
  <path class="cls-1" d="M426.94,90.21v-1.76c-.72.72-1.5,1.25-2.35,1.6-.85.33-1.84.49-2.99.49-1.58,0-2.81-.32-3.67-.96-.86-.66-1.29-1.58-1.29-2.77,0-1.33.56-2.32,1.67-2.96,1.13-.66,2.9-1.03,5.31-1.1l3.24-.09v-.4c0-1.66-1.1-2.49-3.29-2.49-1.07,0-1.89.13-2.47.4-.58.25-.96.64-1.13,1.18l-2.52-.28c.28-1.18.92-2.04,1.93-2.59,1-.56,2.43-.85,4.28-.85,1.99,0,3.46.39,4.42,1.18.97.78,1.46,1.98,1.46,3.6v7.83h-2.61ZM426.87,84.5l-3.2.09c-1.47.05-2.54.23-3.2.54-.64.31-.96.79-.96,1.43,0,.58.25,1.03.75,1.36.5.31,1.2.47,2.09.47.67,0,1.32-.09,1.93-.28.63-.2,1.17-.49,1.62-.85.64-.49.96-1.14.96-1.95v-.82ZM424.31,76.37h-2.7l3.41-3.55h3.34l-4.04,3.55Z"/>
  <path class="cls-1" d="M416.08,89.98c-1.05.33-2.12.49-3.22.49-1.44,0-2.5-.33-3.17-.99-.66-.67-.99-1.75-.99-3.22v-6.14h-2.37v-2.14h2.37v-3.29h2.82v3.29h4.18v2.14h-4.18v6.23c0,.64.16,1.12.47,1.43.33.31.83.47,1.5.47.72,0,1.44-.12,2.16-.35l.42,2.07Z"/>
  <path class="cls-1" d="M402.04,90.21v-12.22h2.82v12.22h-2.82ZM402,76.18v-2.75h2.91v2.75h-2.91Z"/>
  <path class="cls-1" d="M396.44,87.6c-1.13,1.54-2.86,2.3-5.19,2.3-1.19,0-2.25-.24-3.17-.73-.91-.49-1.63-1.19-2.16-2.12-.52-.92-.78-2.01-.78-3.24,0-1.16.26-2.21.78-3.15.53-.94,1.29-1.68,2.26-2.23s2.09-.82,3.36-.82c1.11,0,2.07.17,2.87.52.81.34,1.51.89,2.09,1.62v-1.76h2.77v10.16c0,2.4-.55,4.15-1.65,5.24-1.08,1.1-2.81,1.65-5.17,1.65-2.08,0-3.68-.32-4.77-.96-1.1-.63-1.75-1.6-1.95-2.91h2.84c.22.6.63,1.03,1.25,1.29.61.28,1.48.42,2.61.42,1.36,0,2.37-.31,3.03-.94.66-.61.99-1.58.99-2.89v-1.43ZM396.44,83.49c0-1.02-.38-1.9-1.13-2.66-.67-.67-1.68-1.01-3.01-1.01s-2.4.34-3.15,1.03c-.74.69-1.11,1.66-1.11,2.91s.35,2.2,1.06,2.89c.72.69,1.74,1.03,3.06,1.03.64,0,1.24-.1,1.79-.31s1.01-.49,1.39-.85c.74-.71,1.1-1.53,1.1-2.47v-.59Z"/>
  <path class="cls-1" d="M380.16,90.21v-12.22h2.82v12.22h-2.82ZM380.12,76.18v-2.75h2.91v2.75h-2.91Z"/>
  <path class="cls-1" d="M374.61,90.21v-2.02c-.56.75-1.3,1.34-2.21,1.76-.91.42-1.92.63-3.03.63-1.19,0-2.25-.26-3.17-.78-.91-.52-1.63-1.26-2.16-2.23-.52-.97-.78-2.1-.78-3.39s.26-2.37.78-3.36c.52-1,1.26-1.79,2.23-2.35.97-.58,2.1-.87,3.39-.87,2.15,0,3.78.72,4.91,2.16v-6.35h2.82v16.78h-2.77ZM374.58,83.77c0-1.1-.37-2.04-1.1-2.82-.71-.75-1.72-1.13-3.03-1.13-1.41,0-2.48.37-3.2,1.1-.72.74-1.08,1.81-1.08,3.22,0,1.33.36,2.37,1.08,3.13.74.74,1.75,1.1,3.06,1.1.6,0,1.18-.11,1.74-.33.56-.24,1.04-.55,1.43-.94.36-.36.63-.77.82-1.22.19-.45.28-.92.28-1.41v-.71Z"/>
  <path class="cls-1" d="M345.34,84.81c.03,1.13.42,2.03,1.17,2.7.77.66,1.77.99,3.01.99.97,0,1.76-.16,2.37-.47.63-.33,1.06-.81,1.29-1.43h2.8c-.34,1.35-1.06,2.35-2.14,3.01-1.07.66-2.52.99-4.35.99-2.15,0-3.84-.56-5.08-1.69-1.22-1.14-1.83-2.7-1.83-4.68,0-1.29.27-2.42.82-3.41.56-1,1.36-1.79,2.4-2.35,1.05-.56,2.27-.85,3.67-.85,2.12,0,3.75.55,4.91,1.65,1.17,1.08,1.76,2.6,1.76,4.56v.99h-10.81ZM353.45,82.93c-.03-1.03-.4-1.83-1.11-2.4-.69-.58-1.65-.87-2.89-.87-1.11,0-2.04.3-2.77.89-.72.58-1.14,1.37-1.27,2.37h8.04Z"/>
  <path class="cls-1" d="M341.27,85.94c-.24,1.49-.91,2.64-2.02,3.46-1.11.8-2.57,1.2-4.37,1.2-2.21,0-3.93-.56-5.17-1.69-1.22-1.14-1.83-2.73-1.83-4.77,0-1.3.27-2.44.82-3.41.56-.99,1.38-1.75,2.44-2.28,1.07-.55,2.33-.82,3.78-.82,1.69,0,3.06.37,4.11,1.1,1.07.72,1.74,1.76,2.02,3.13l-2.87.38c-.44-1.6-1.54-2.4-3.29-2.4-1.3,0-2.31.38-3.03,1.13-.72.74-1.08,1.78-1.08,3.13s.35,2.46,1.06,3.2c.72.74,1.76,1.1,3.1,1.1,1.96,0,3.12-.81,3.48-2.44h2.84Z"/>
  <path class="cls-1" d="M322.91,90.21v-12.22h2.82v12.22h-2.82ZM322.86,76.18v-2.75h2.91v2.75h-2.91Z"/>
  <path class="cls-1" d="M313.04,90.21l-5.74-12.22h3.15l4.14,9.52,4.16-9.52h3.03l-5.74,12.22h-3.01Z"/>
  <path class="cls-1" d="M298.66,90.21v-12.22h2.77v2.09c.58-.74,1.25-1.3,2.02-1.69.78-.39,1.61-.59,2.49-.59.38,0,.82.04,1.32.12l-.33,2.35c-.47-.08-.9-.12-1.29-.12-1.24,0-2.24.35-3.01,1.06-.77.69-1.15,1.5-1.15,2.42v6.58h-2.82Z"/>
  <path class="cls-1" d="M285.72,84.81c.03,1.13.42,2.03,1.18,2.7.77.66,1.77.99,3.01.99.97,0,1.76-.16,2.37-.47.63-.33,1.06-.81,1.29-1.43h2.8c-.34,1.35-1.06,2.35-2.14,3.01-1.07.66-2.52.99-4.35.99-2.15,0-3.84-.56-5.08-1.69-1.22-1.14-1.83-2.7-1.83-4.68,0-1.29.27-2.42.82-3.41.56-1,1.36-1.79,2.4-2.35,1.05-.56,2.27-.85,3.67-.85,2.12,0,3.75.55,4.91,1.65,1.18,1.08,1.76,2.6,1.76,4.56v.99h-10.81ZM293.83,82.93c-.03-1.03-.4-1.83-1.1-2.4-.69-.58-1.65-.87-2.89-.87-1.11,0-2.04.3-2.77.89-.72.58-1.14,1.37-1.27,2.37h8.04Z"/>
  <path class="cls-1" d="M278.6,81.33c-.22-.55-.61-.95-1.18-1.2-.55-.25-1.33-.38-2.35-.38s-1.83.13-2.37.38c-.55.24-.82.59-.82,1.06,0,.36.09.63.26.82.17.17.46.32.87.45.41.13.99.24,1.74.35l1.58.24c1.36.2,2.42.46,3.17.78.75.3,1.28.68,1.6,1.15.33.45.49,1.04.49,1.76,0,1.27-.53,2.23-1.57,2.89-1.03.64-2.57.96-4.61.96s-3.6-.34-4.68-1.01c-1.07-.67-1.72-1.71-1.95-3.1h2.75c.2.67.6,1.17,1.2,1.48.61.3,1.49.45,2.63.45,2.29,0,3.43-.51,3.43-1.53,0-.45-.21-.79-.63-1.01-.42-.22-1.21-.42-2.35-.59l-1.58-.24c-1.32-.19-2.34-.44-3.08-.75-.74-.31-1.26-.71-1.58-1.2-.3-.49-.45-1.1-.45-1.86,0-1.13.53-2.01,1.57-2.66,1.07-.64,2.52-.96,4.37-.96s3.24.27,4.21.82c.99.53,1.65,1.4,2,2.61l-2.68.28Z"/>
  <path class="cls-1" d="M258.65,84.57v-2.56h8.84v2.56h-8.84Z"/>
  <path class="cls-1" d="M253.73,90.21v-16.78h2.82v16.78h-2.82Z"/>
  <path class="cls-1" d="M248.13,90.21v-16.78h2.82v16.78h-2.82Z"/>
  <path class="cls-1" d="M242.58,90.21v-2.02c-1.36,1.6-3.08,2.4-5.15,2.4-1.55,0-2.75-.4-3.6-1.2-.85-.8-1.27-1.94-1.27-3.43v-7.97h2.82v7.48c0,.96.24,1.67.71,2.14.49.47,1.22.71,2.21.71,1.18,0,2.22-.4,3.13-1.2.74-.66,1.1-1.47,1.1-2.42v-6.7h2.82v12.22h-2.77Z"/>
  <path class="cls-1" d="M224.44,90.21v-10.08h-2.37v-2.14h2.37v-.75c0-1.25.42-2.23,1.25-2.94.85-.71,2.01-1.06,3.5-1.06.91,0,1.81.12,2.7.35l-.45,2.02c-.58-.14-1.15-.21-1.72-.21-.83,0-1.45.15-1.86.45-.41.28-.61.74-.61,1.36v.78h4.02v2.14h-4.02v10.08h-2.82Z"/>
  <g>
    <path class="cls-2" d="M179.25,83.51c-1.78,0-3.09-.39-3.91-1.18-.82-.83-1.24-2.11-1.24-3.82v-16.91h9.14v-7.3h-9.14v-7.37h-9.7v7.37h-6.57v7.3h6.57v17.24c0,4.25.98,7.37,2.93,9.34,1.95,1.93,5.08,2.9,9.37,2.9,2.25,0,4.41-.24,6.54-.67v-7.36c-1.35.3-2.68.46-4,.46Z"/>
    <path class="cls-2" d="M145.47,91.14v-21.65c0-2.54-.61-4.38-1.82-5.53-1.17-1.14-3.06-1.71-5.66-1.71-1.39,0-2.77.26-4.17.79-1.34.53-2.51,1.28-3.52,2.24-1.82,1.75-2.73,3.72-2.73,5.92v19.94h-9.7v-36.65h9.5v6.58c3.65-4.38,8.33-6.58,14.06-6.58,4.43,0,7.81,1.14,10.15,3.42,2.38,2.24,3.58,5.46,3.58,9.67v23.56h-9.7Z"/>
    <path class="cls-2" d="M101.52,74.31l-8.14.2c-3.52.09-6.09.55-7.75,1.38-1.6.79-2.41,2-2.41,3.62,0,1.41.59,2.47,1.76,3.22,1.21.75,2.96,1.12,5.21,1.12,1.82,0,3.49-.22,5.01-.66,1.52-.49,2.8-1.16,3.84-2.04,1.65-1.32,2.47-2.99,2.47-5v-1.84ZM101.85,91.02v-5.92c-1.99,1.93-4.14,3.36-6.44,4.28-2.25.88-4.86,1.32-7.81,1.32-4.47,0-7.9-.89-10.28-2.7-2.38-1.84-3.58-4.45-3.58-7.83,0-3.78,1.56-6.58,4.69-8.42,3.12-1.84,8.05-2.86,14.78-3.03l8.33-.2v-1.32c0-1.93-.69-3.4-2.08-4.41-1.39-1.05-3.36-1.58-5.92-1.58-4.91,0-7.84,1.41-8.79,4.21l-8.79-.86c.69-3.46,2.51-6.03,5.47-7.7,2.99-1.67,7.13-2.5,12.43-2.5,11.33,0,16.99,4.51,16.99,13.55v23.09h-8.98Z"/>
    <path class="cls-2" d="M202.94,54.3c4.66,5.29,7,11.44,7,18.42s-2.33,13.13-7,18.42h-8.62c2.14-2.97,3.7-5.96,4.7-8.94.99-2.95,1.48-6.11,1.48-9.49s-.49-6.55-1.48-9.53c-.99-2.95-2.56-5.91-4.7-8.9h8.62Z"/>
    <path class="cls-2" d="M57.95,54.3c-4.67,5.29-7,11.44-7,18.42s2.33,13.13,7,18.42h8.62c-2.14-2.97-3.7-5.96-4.7-8.94-.99-2.95-1.48-6.11-1.48-9.49s.49-6.55,1.48-9.53c.99-2.95,2.56-5.91,4.7-8.9h-8.62Z"/>
  </g>
</svg>
